# This file uses centimeters as units for non-parametric coordinates.

mtllib Brick.mtl
g default
v 0.500000 -0.500000 0.500000
v 0.500000 0.500000 0.500000
v 0.500000 0.500000 -0.500000
v 0.500000 -0.500000 -0.500000
v 0.620627 0.000000 0.000000
v -0.500000 0.500000 0.500000
v -0.500000 0.500000 -0.500000
v -0.000000 0.620627 0.000000
v -0.500000 -0.500000 0.500000
v -0.500000 -0.500000 -0.500000
v -0.620627 -0.000000 0.000000
v 0.000000 -0.620627 0.000000
v -0.000000 0.000000 0.620627
v 0.000000 0.000000 -0.620627
vt 0.000660 0.000998
vt 0.329440 0.000998
vt 0.165050 0.165388
vt 0.329440 0.329779
vt 0.000660 0.329779
vt 0.660334 0.001987
vt 0.660334 0.330767
vt 0.495944 0.166377
vt 0.331554 0.330767
vt 0.331554 0.001987
vt 0.660334 0.664390
vt 0.331554 0.664390
vt 0.495944 0.500000
vt 0.331554 0.335609
vt 0.660334 0.335609
vt 0.329440 0.336599
vt 0.329440 0.665379
vt 0.165050 0.500989
vt 0.000660 0.665379
vt 0.000660 0.336599
vt 0.000660 0.670222
vt 0.329440 0.670222
vt 0.165050 0.834612
vt 0.329440 0.999002
vt 0.000660 0.999002
vt 0.331554 0.670222
vt 0.660334 0.670222
vt 0.495944 0.834612
vt 0.660334 0.999002
vt 0.331554 0.999002
vn 0.972110 -0.234525 0.000000
vn 0.972110 -0.234525 0.000000
vn 0.972110 -0.234525 0.000000
vn 0.972110 0.000000 -0.234525
vn 0.972110 0.000000 -0.234525
vn 0.972110 0.000000 -0.234525
vn 0.972110 0.234525 0.000000
vn 0.972110 0.234525 0.000000
vn 0.972110 0.234525 0.000000
vn 0.972110 0.000000 0.234525
vn 0.972110 0.000000 0.234525
vn 0.972110 0.000000 0.234525
vn 0.234525 0.972110 0.000000
vn 0.234525 0.972110 0.000000
vn 0.234525 0.972110 0.000000
vn 0.000000 0.972110 -0.234525
vn 0.000000 0.972110 -0.234525
vn 0.000000 0.972110 -0.234525
vn -0.234525 0.972110 0.000000
vn -0.234525 0.972110 0.000000
vn -0.234525 0.972110 0.000000
vn 0.000000 0.972110 0.234525
vn 0.000000 0.972110 0.234525
vn 0.000000 0.972110 0.234525
vn -0.972110 0.234525 0.000000
vn -0.972110 0.234525 0.000000
vn -0.972110 0.234525 0.000000
vn -0.972110 0.000000 -0.234525
vn -0.972110 0.000000 -0.234525
vn -0.972110 0.000000 -0.234525
vn -0.972110 -0.234525 0.000000
vn -0.972110 -0.234525 0.000000
vn -0.972110 -0.234525 0.000000
vn -0.972110 0.000000 0.234525
vn -0.972110 0.000000 0.234525
vn -0.972110 0.000000 0.234525
vn -0.234525 -0.972110 0.000000
vn -0.234525 -0.972110 0.000000
vn -0.234525 -0.972110 0.000000
vn 0.000000 -0.972110 -0.234525
vn 0.000000 -0.972110 -0.234525
vn 0.000000 -0.972110 -0.234525
vn 0.234525 -0.972110 0.000000
vn 0.234525 -0.972110 0.000000
vn 0.234525 -0.972110 0.000000
vn 0.000000 -0.972110 0.234525
vn 0.000000 -0.972110 0.234525
vn 0.000000 -0.972110 0.234525
vn 0.000000 -0.234525 0.972110
vn 0.000000 -0.234525 0.972110
vn 0.000000 -0.234525 0.972110
vn 0.234525 0.000000 0.972110
vn 0.234525 0.000000 0.972110
vn 0.234525 0.000000 0.972110
vn 0.000000 0.234525 0.972110
vn 0.000000 0.234525 0.972110
vn 0.000000 0.234525 0.972110
vn -0.234525 0.000000 0.972110
vn -0.234525 0.000000 0.972110
vn -0.234525 0.000000 0.972110
vn 0.000000 -0.234525 -0.972110
vn 0.000000 -0.234525 -0.972110
vn 0.000000 -0.234525 -0.972110
vn -0.234525 0.000000 -0.972110
vn -0.234525 0.000000 -0.972110
vn -0.234525 0.000000 -0.972110
vn 0.000000 0.234525 -0.972110
vn 0.000000 0.234525 -0.972110
vn 0.000000 0.234525 -0.972110
vn 0.234525 0.000000 -0.972110
vn 0.234525 0.000000 -0.972110
vn 0.234525 0.000000 -0.972110
s off
g polySurface1
usemtl lambert2SG
f 1/1/1 4/2/2 5/3/3
f 4/2/4 3/4/5 5/3/6
f 3/4/7 2/5/8 5/3/9
f 2/5/10 1/1/11 5/3/12
f 2/6/13 3/7/14 8/8/15
f 3/7/16 7/9/17 8/8/18
f 7/9/19 6/10/20 8/8/21
f 6/10/22 2/6/23 8/8/24
f 6/11/25 7/12/26 11/13/27
f 7/12/28 10/14/29 11/13/30
f 10/14/31 9/15/32 11/13/33
f 9/15/34 6/11/35 11/13/36
f 9/16/37 10/17/38 12/18/39
f 10/17/40 4/19/41 12/18/42
f 4/19/43 1/20/44 12/18/45
f 1/20/46 9/16/47 12/18/48
f 9/21/49 1/22/50 13/23/51
f 1/22/52 2/24/53 13/23/54
f 2/24/55 6/25/56 13/23/57
f 6/25/58 9/21/59 13/23/60
f 4/26/61 10/27/62 14/28/63
f 10/27/64 7/29/65 14/28/66
f 7/29/67 3/30/68 14/28/69
f 3/30/70 4/26/71 14/28/72
